<svg width="32" height="32" viewBox="0 0 32 32" fill="none" xmlns="http://www.w3.org/2000/svg">
<rect width="32" height="32" fill="#2D6A4F"/>
<path d="M14.0523 7.29852C15.3507 6.42011 16.1297 7.67498 15.091 8.55339C10.2091 13.874 8.55582 16.961 8.33942 17.8394V20.4747C8.65103 23.5868 12.3644 24.9504 14.1821 25.2432H17.2982C20.3105 25.1428 22.1888 23.4445 22.7514 22.608C25.0885 18.2159 23.1352 15.851 22.7514 15.3297C22.4742 14.9532 18.8996 10.603 17.0385 8.55339C15.9998 7.04754 17.2807 6.67109 18.0772 7.29852C19.7156 8.58909 22.7514 11.4145 22.7514 11.3141C24.2056 11.8161 25.2616 11.4396 25.6078 11.1886L28.4643 9.4318C29.9184 8.4279 30.4118 9.93375 29.6328 10.6867C28.5941 11.9415 26.3858 14.4768 26.2395 14.7023C25.8325 15.3297 25.8067 15.9571 25.7202 16.5846C25.7202 17.9231 25.6078 19.7217 25.6078 20.4747C25.4001 24.8918 20.4143 26.6654 17.9474 27H14.1821C8.57313 26.3977 6.73809 22.8171 6.52169 21.1021V15.7062C6.52169 15.0787 6.13218 14.6186 6.00234 14.4513L2.49673 10.5612C1.35416 9.25612 2.3494 8.67888 3.7951 9.55729C4.14134 9.7246 5.17138 10.2851 6.52169 11.1886C7.87201 12.0921 9.07517 11.5651 9.50796 11.1886L14.0523 7.29852Z" fill="white"/>
<path d="M14.0523 16.961C12.9097 15.0536 11.4122 16.1663 10.8063 16.961C10.1831 17.463 9.99485 16.7101 10.287 16.3336C12.1566 13.9242 14.009 15.3297 14.7015 16.3336C15.0131 17.0363 14.2778 17.3375 14.0523 16.961Z" fill="white"/>
<path d="M21.0635 16.961C19.9209 15.0536 18.4235 16.1663 17.8176 16.961C17.4281 17.463 16.9661 16.7616 17.2982 16.3336C19.1679 13.9242 21.0202 15.3297 21.7127 16.3336C22.0243 16.8355 21.453 17.463 21.0635 16.961Z" fill="white"/>
<path d="M17.4281 18.5924H14.8313H14.7015C14.22 18.8885 13.5197 19.6584 14.5702 20.3691C15.0079 20.5806 15.8307 21.0797 15.6206 21.3843C15.6206 21.5535 15.4105 21.9427 14.5702 22.1458C14.22 22.1881 13.4409 22.0442 13.1258 21.1305C12.8632 20.7498 12.2854 20.9782 12.6006 21.8919C13.082 22.6111 14.4242 23.6768 15.9998 22.357H16.1297C17.6877 23.662 19.0294 22.5661 19.5055 21.855C19.8171 20.9515 19.2458 20.7256 18.9861 21.1021C18.6745 22.0056 17.9041 22.1478 17.5579 22.106C16.7269 21.9052 16.5192 21.5204 16.5192 21.3531C16.3115 21.0519 17.1251 20.5583 17.5579 20.3492C18.5966 19.6465 17.9041 18.8852 17.4281 18.5924Z" fill="white"/>
<circle cx="7.5" cy="8.5" r="2.5" fill="white"/>
<circle cx="24.5" cy="8.5" r="2.5" fill="white"/>
</svg>
